# xmcd CD database file
#
# Track frame offsets:
#	150
#	19640
#	35460
#	53835
#	68505
#	86007
#	102877
#	119950
#	139832
#	157767
#	175850
#	191667
#
# Disc length: 2909 seconds
#
# Revision: 0
# Processed by: cddbd v1.4PL0 Copyright (c) Steve Scherf et al.
# Submitted via: CDex 1.50Beta7
#
DISCID=9b0b5b0c
DTITLE=Ben Swift Band - Chimpanzee
DYEAR=1900
DGENRE=Jazz
TTITLE0=Poughkeepsie
TTITLE1=Bandwagon Jack
TTITLE2=Walking Away
TTITLE3=Masking Tape
TTITLE4=Good Life
TTITLE5=Cup and Saucer
TTITLE6=I Believe
TTITLE7=China
TTITLE8=Lemur
TTITLE9=Drag the Mule
TTITLE10=Bet on the Moon
TTITLE11=Chimpanzee
EXTD=
EXTT0=
EXTT1=
EXTT2=
EXTT3=
EXTT4=
EXTT5=
EXTT6=
EXTT7=
EXTT8=
EXTT9=
EXTT10=
EXTT11=
PLAYORDER=
